<?xml version="1.0" encoding="utf-8"?>
<?xml-stylesheet type="text/xsl" href="rss1.xsl"?>
<rss version="2.0" xmlns:atom="http://www.w3.org/2005/Atom" xmlns:content="http://purl.org/rss/1.0/modules/content/" xmlns:dc="http://purl.org/dc/elements/1.1/" xmlns:media="http://search.yahoo.com/mrss/">
<channel>
 <title>Getty</title>
 <link>http://www.gettyimg.com/</link>
 <atom:link href="http://www.gettyimg.com/" rel="self" type="application/rss+xml" />

 
                <item>
                <title><![CDATA[【HD Live Performances】FEED - Thirty Seconds to Mars - iHeartRadio Music Festival (2023) 1080i HDTV Backhaul MPA2.0 H.264-TrollHD]]></title>
                <link><![CDATA[https://sharemania.us/threads/thirty-seconds-to-mars-iheartradio-music-festival-2023-1080i-hdtv-backhaul-mpa2-0-h-264-trollhd.231049/]]></link>
                <description><![CDATA[<article>
<blockquote class="messageText SelectQuoteContainer ugc baseHtml">
<img src="https://images2.imgbox.com/ba/83/TWBU2JMC_o.jpg" class="bbCodeImage LbImage" alt="[​IMG]" data-url="https://images2.imgbox.com/ba/83/TWBU2JMC_o.jpg" style=""> <br>
<br>
<div class="bbCodeBlock bbCodeCode">
<div class="type">Code:</div>
<pre>General
Unique ID                      : 256097180405612358195480970838398806808 (0xC0AA85D8F2F9AABA77378DEAA3012B18)
Format                         : Matroska
Format version                 : Version 4
File size                      : 7.74 GiB
Duration                       : 35 min 7 s
Overall bit rate mode          : Constant
Overall bit rate               : 31.5 Mb/s
Encoded date                   : UTC 2023-10-24 22:46:16
Writing application            : mkvmerge v30.0.0 ('Interstellar') 64-bit
Writing library                : libebml v1.3.6 + libmatroska v1.4.9

Video
ID                             : 1
Format                         : AVC
Format/Info                    : Advanced Video Codec
Format profile                 : High@L4.1
Format settings                : 3 Ref Frames
Format settings, CABAC         : No
Format settings, Reference fra : 3 frames
Codec ID                       : V_MPEG4/ISO/AVC
Duration                       : 35 min 7 s
Bit rate mode                  : Constant
Bit rate                       : 31.2 Mb/s
Width                          : 1 920 pixels
Height                         : 1 080 pixels
Display aspect ratio           : 16:9
Frame rate mode                : Variable
Frame rate                     : 59.940 (60000/1001) FPS
Original frame rate            : 29.970 (30000/1001) FPS
Color space                    : YUV
Chroma subsampling             : 4:2:0
Bit depth                      : 8 bits
Scan type                      : Interlaced
Scan type, store method        : Separated fields
Scan order                     : Top Field First
Bits/(Pixel*Frame)             : 0.251
Stream size                    : 7.64 GiB (99%)
Default                        : Yes
Forced                         : No
Color range                    : Limited
Color primaries                : BT.709
Transfer characteristics       : BT.709
Matrix coefficients            : BT.709

Audio
ID                             : 2
Format                         : MPEG Audio
Format version                 : Version 1
Format profile                 : Layer 2
Codec ID                       : A_MPEG/L2
Codec ID/Hint                  : MP2
Duration                       : 35 min 7 s
Bit rate mode                  : Constant
Bit rate                       : 384 kb/s
Channel(s)                     : 2 channels
Sampling rate                  : 48.0 kHz
Frame rate                     : 41.667 FPS (1152 SPF)
Compression mode               : Lossy
Delay relative to video        : 77 ms
Stream size                    : 96.5 MiB (1%)
Language                       : English
Default                        : Yes
Forced                         : No

</pre>
</div>
<div class="bbCodeBlock bbCodeVfcHH HiddenContent">
<div class="attribution type">Hidden Content:</div>
<blockquote>You must either reply or click 'Like' to see the hidden information contained here.</blockquote>
</div><span style="color: rgb(191, 191, 191)">Cutted with:</span><br>
<b>MKVToolNix GUI<br>
<br>
<img src="styles/default/xenforo/smilies/super_man-48.png" class="mceSmilie" alt=":super:" title="Super Man    :super:"><img src="styles/default/xenforo/smilies/super_man-48.png" class="mceSmilie" alt=":super:" title="Super Man    :super:"><img src="styles/default/xenforo/smilies/super_man-48.png" class="mceSmilie" alt=":super:" title="Super Man    :super:"></b>
<div class="messageTextEndMarker">&nbsp;</div>
</blockquote>
</article>]]></description>
                <author><![CDATA[Dream66]]></author>
                </item>

                </channel></rss>